<svg width="813" height="192" viewBox="0 0 813 192" fill="none" xmlns="http://www.w3.org/2000/svg">
                <path fill-rule="evenodd" clip-rule="evenodd"
                    d="M223.25 3.00001V190H158V129.89L139.439 190H84.561L66 129.89V190H0.5V3.00001H76.9909L112.439 99.5732L146.978 3.00001H223.25ZM112.5 114.25L73.5 8.00001H5.5V185H61V96.75L88.25 185H135.75L163 96.75V185H218.25V8.00001H150.5L112.5 114.25ZM281.09 179.357L281.079 179.351C266.476 171.081 254.844 159.621 246.237 145.042C237.58 130.378 233.293 113.904 233.293 95.75C233.293 77.5956 237.58 61.122 246.237 46.4581C254.848 31.8733 266.489 20.4872 281.11 12.382C295.883 4.11772 312.059 0 329.543 0C347.022 0 363.121 4.11574 377.737 12.3881C392.355 20.4943 403.916 31.884 412.36 46.4767C421.009 61.1359 425.293 77.6033 425.293 95.75C425.293 113.897 421.009 130.364 412.359 145.024C403.91 159.625 392.265 171.091 377.495 179.357C362.885 187.628 346.868 191.75 329.543 191.75C312.056 191.75 295.877 187.631 281.102 179.363L281.09 179.357ZM375.043 175C389.043 167.167 400.043 156.333 408.043 142.5C416.21 128.667 420.293 113.083 420.293 95.75C420.293 78.4167 416.21 62.8333 408.043 49C400.043 35.1667 389.126 24.4167 375.293 16.75C361.46 8.91667 346.21 5 329.543 5C312.876 5 297.543 8.91667 283.543 16.75C269.71 24.4167 258.71 35.1667 250.543 49C242.376 62.8333 238.293 78.4167 238.293 95.75C238.293 113.083 242.376 128.667 250.543 142.5C258.71 156.333 269.71 167.167 283.543 175C297.543 182.833 312.876 186.75 329.543 186.75C346.043 186.75 361.21 182.833 375.043 175ZM351.228 70.2319L351.209 70.2097C346.331 64.383 339.353 61.25 329.543 61.25C319.538 61.25 312.49 64.4009 307.627 70.2097L307.608 70.2319L307.589 70.254C302.585 76.0919 299.793 84.3901 299.793 95.75C299.793 106.903 302.566 115.233 307.608 121.268C312.458 126.913 319.512 130 329.543 130C339.381 130 346.363 126.93 351.228 121.268C356.27 115.233 359.043 106.903 359.043 95.75C359.043 84.3901 356.251 76.0919 351.247 70.254L351.228 70.2319ZM355.043 124.5C349.043 131.5 340.543 135 329.543 135C318.376 135 309.793 131.5 303.793 124.5C297.793 117.333 294.793 107.75 294.793 95.75C294.793 83.5833 297.793 74 303.793 67C309.793 59.8333 318.376 56.25 329.543 56.25C340.543 56.25 349.043 59.8333 355.043 67C361.043 74 364.043 83.5833 364.043 95.75C364.043 107.75 361.043 117.333 355.043 124.5ZM478.112 179.357L478.101 179.351C463.497 171.081 451.866 159.621 443.259 145.042C434.602 130.378 430.314 113.904 430.314 95.75C430.314 77.5956 434.602 61.122 443.259 46.4581C451.869 31.8733 463.51 20.4872 478.131 12.382C492.905 4.11772 509.081 0 526.564 0C544.043 0 560.141 4.11546 574.757 12.3872C589.376 20.4936 600.937 31.8835 609.381 46.4767C618.031 61.1359 622.314 77.6033 622.314 95.75C622.314 113.897 618.031 130.364 609.381 145.024C600.932 159.624 589.288 171.09 574.519 179.356C559.908 187.628 543.891 191.75 526.564 191.75C509.078 191.75 492.899 187.631 478.123 179.363L478.112 179.357ZM572.064 175C586.064 167.167 597.064 156.333 605.064 142.5C613.231 128.667 617.314 113.083 617.314 95.75C617.314 78.4167 613.231 62.8333 605.064 49C597.064 35.1667 586.148 24.4167 572.314 16.75C558.481 8.91667 543.231 5 526.564 5C509.898 5 494.564 8.91667 480.564 16.75C466.731 24.4167 455.731 35.1667 447.564 49C439.398 62.8333 435.314 78.4167 435.314 95.75C435.314 113.083 439.398 128.667 447.564 142.5C455.731 156.333 466.731 167.167 480.564 175C494.564 182.833 509.898 186.75 526.564 186.75C543.064 186.75 558.231 182.833 572.064 175ZM548.249 70.2319L548.231 70.2097C543.352 64.383 536.375 61.25 526.564 61.25C516.56 61.25 509.511 64.4009 504.648 70.2097L504.63 70.2319L504.611 70.254C499.607 76.0919 496.814 84.3901 496.814 95.75C496.814 106.903 499.588 115.233 504.63 121.268C509.48 126.913 516.533 130 526.564 130C536.401 130 543.383 126.931 548.248 121.27C553.291 115.235 556.064 106.903 556.064 95.75C556.064 84.3901 553.272 76.0919 548.268 70.254L548.249 70.2319ZM552.064 124.5C546.064 131.5 537.564 135 526.564 135C515.398 135 506.814 131.5 500.814 124.5C494.814 117.333 491.814 107.75 491.814 95.75C491.814 83.5833 494.814 74 500.814 67C506.814 59.8333 515.398 56.25 526.564 56.25C537.564 56.25 546.064 59.8333 552.064 67C558.064 74 561.064 83.5833 561.064 95.75C561.064 107.75 558.064 117.333 552.064 124.5ZM812.086 190H748.895L697.836 112.65V190H632.336V3.00001H695.551L746.586 81.6152V3.00001H812.086V190ZM751.586 98.5L692.836 8.00001H637.336V185H692.836V96L751.586 185H807.086V8.00001H751.586V98.5Z"
                    fill="white" />
            </svg>

